<svg width="19" height="22" viewBox="0 0 19 22" fill="none" xmlns="http://www.w3.org/2000/svg">
	<path
		d="M15.8125 18.4937C15.8125 18.975 15.4687 19.3188 14.9875 19.3188H3.50625C3.025 19.3188 2.68125 18.975 2.68125 18.4937C2.68125 18.0125 3.025 17.6688 3.50625 17.6688H14.9875C15.4 17.6688 15.8125 18.0812 15.8125 18.4937ZM4.05625 15.1938C3.1625 14.3 2.68125 13.1313 2.68125 11.825C2.68125 9.21251 4.8125 7.01251 7.49375 7.01251C10.175 7.01251 12.3062 9.14376 12.3062 11.825C12.3062 14.5063 10.175 16.6375 7.49375 16.6375C6.25625 16.6375 5.0875 16.1563 4.19375 15.2625L4.05625 15.1938ZM7.49375 15.0562C9.2125 15.0562 10.6562 13.6125 10.6562 11.8937C10.6562 10.45 9.69375 9.2125 8.31875 8.86875V11.8937C8.31875 12.1 8.25 12.3063 8.1125 12.4438L5.98125 14.575C6.39375 14.85 6.94375 15.0562 7.49375 15.0562ZM4.74375 13.475L6.66875 11.55V8.86875C5.29375 9.2125 4.33125 10.45 4.33125 11.8937C4.33125 12.4437 4.46875 12.9938 4.74375 13.475ZM14.9875 15.0562H13.2C12.7187 15.0562 12.375 15.4 12.375 15.8813C12.375 16.3625 12.7187 16.7062 13.2 16.7062H14.9875C15.4687 16.7062 15.8125 16.3625 15.8125 15.8813C15.8125 15.4 15.4 15.0562 14.9875 15.0562ZM14.9875 12.375H13.2C12.7187 12.375 12.375 12.7188 12.375 13.2C12.375 13.6813 12.7187 14.025 13.2 14.025H14.9875C15.4687 14.025 15.8125 13.6813 15.8125 13.2C15.8125 12.7188 15.4 12.375 14.9875 12.375ZM14.9875 7.08124H13.2C12.7187 7.08124 12.375 7.425 12.375 7.90625C12.375 8.3875 12.7187 8.73126 13.2 8.73126H14.9875C15.4687 8.73126 15.8125 8.3875 15.8125 7.90625C15.8125 7.425 15.4 7.08124 14.9875 7.08124ZM18.425 2.61249V19.3875C18.425 20.8313 17.2562 22 15.8125 22H2.6125C1.16875 22 0 20.8313 0 19.3875V2.61249C0 1.16874 1.16875 0 2.6125 0H15.8812C17.2562 0 18.425 1.16874 18.425 2.61249ZM15.8812 1.65H2.6125C2.0625 1.65 1.65 2.06249 1.65 2.61249V19.3875C1.65 19.9375 2.0625 20.35 2.6125 20.35H15.8812C16.4312 20.35 16.8437 19.9375 16.8437 19.3875V2.61249C16.8437 2.06249 16.3625 1.65 15.8812 1.65ZM14.9875 9.76251H13.2C12.7187 9.76251 12.375 10.1062 12.375 10.5875C12.375 11.0687 12.7187 11.4125 13.2 11.4125H14.9875C15.4687 11.4125 15.8125 11.0687 15.8125 10.5875C15.8125 10.1062 15.4 9.76251 14.9875 9.76251Z"
		fill="#404040" />
</svg>