<svg width="23" height="23" viewBox="0 0 23 23" fill="none" xmlns="http://www.w3.org/2000/svg">
	<path
		d="M18.8513 6.62342C18.4873 5.3133 17.4684 4.22152 16.0854 4.00316C15.4304 1.60127 13.3196 0 10.8449 0C8.44304 0 6.25949 1.60127 5.60443 3.93039C5.60443 3.93039 5.60443 3.93039 5.53165 3.93039C2.47468 3.93039 0 6.40506 0 9.46203C0 12.4462 2.47468 14.9209 5.53165 14.9209H8.66139V15.8671H7.56962C7.27848 15.8671 6.98734 16.0127 6.84177 16.3038C6.6962 16.5949 6.6962 16.9589 6.91456 17.1772L10.8449 22.4905C10.9905 22.7089 11.2816 22.8544 11.5 22.8544C11.7911 22.8544 12.0095 22.7089 12.1551 22.4905L16.0854 17.1772C16.3038 16.8861 16.3038 16.5949 16.1582 16.3038C16.0127 16.0127 15.7215 15.8671 15.4304 15.8671H14.3386V14.9209H18.7785C21.1076 14.9209 23 13.0285 23 10.7722C22.9272 8.51583 21.1076 6.69621 18.8513 6.62342ZM11.5 20.5253L9.24367 17.4684H9.53481C9.97152 17.4684 10.4082 17.1044 10.4082 16.5949V10.8449H12.6646V16.5949C12.6646 17.0316 13.0285 17.4684 13.538 17.4684H13.8291L11.5 20.5253ZM18.7785 13.1741H14.3386V10.0443C14.3386 9.6076 13.9747 9.17089 13.4652 9.17089H9.53481C9.0981 9.17089 8.66139 9.53481 8.66139 10.0443V13.1741H5.60443C3.49367 13.1741 1.81962 11.5 1.81962 9.38925C1.81962 7.35127 3.56646 5.60443 5.60443 5.60443C5.75 5.60443 5.96835 5.60443 6.18671 5.67722C6.40506 5.67722 6.62342 5.67722 6.84177 5.53165C7.06013 5.38608 7.13291 5.16772 7.2057 4.94937C7.42405 3.05696 9.02532 1.67405 10.9177 1.67405C12.7373 1.67405 14.3386 3.05696 14.6297 4.87658C14.7025 5.31329 15.1392 5.67721 15.5759 5.60443C16.5222 5.60443 17.3228 6.47785 17.3228 7.35127C17.3228 7.64241 17.3956 7.93355 17.6139 8.07912C17.8323 8.29747 18.1234 8.37026 18.3418 8.29747C18.4873 8.29747 18.7057 8.22469 18.8513 8.22469C20.2342 8.22469 21.3259 9.31646 21.3259 10.6266C21.2532 12.0823 20.1614 13.1741 18.7785 13.1741Z"
		fill="#404040" />
</svg>