<?xml version="1.0" standalone="no"?><!DOCTYPE svg PUBLIC "-//W3C//DTD SVG 1.1//EN" "http://www.w3.org/Graphics/SVG/1.1/DTD/svg11.dtd"><svg t="1716358597877" class="icon" viewBox="0 0 1024 1024" version="1.1" xmlns="http://www.w3.org/2000/svg" p-id="5252" xmlns:xlink="http://www.w3.org/1999/xlink" width="48" height="48"><path d="M940 130H360c-46.4 0-84 37.6-84 84s37.6 84 84 84h580c46.4 0 84-37.6 84-84s-37.6-84-84-84zM84 130c-46.4 0-84 37.6-84 84s37.6 84 84 84 84-37.6 84-84-37.6-84-84-84zM940 428H360c-46.4 0-84 37.6-84 84s37.6 84 84 84h580c46.4 0 84-37.6 84-84s-37.6-84-84-84zM84 428c-46.4 0-84 37.6-84 84s37.6 84 84 84 84-37.6 84-84-37.6-84-84-84zM940 726H360c-46.4 0-84 37.6-84 84s37.6 84 84 84h580c46.4 0 84-37.6 84-84s-37.6-84-84-84zM84 726c-46.4 0-84 37.6-84 84s37.6 84 84 84 84-37.6 84-84-37.6-84-84-84z" p-id="5253"></path></svg>