<?xml version="1.0" standalone="no"?><!DOCTYPE svg PUBLIC "-//W3C//DTD SVG 1.1//EN" "http://www.w3.org/Graphics/SVG/1.1/DTD/svg11.dtd"><svg t="1716376535528" class="icon" viewBox="0 0 1024 1024" version="1.1" xmlns="http://www.w3.org/2000/svg" p-id="3713" xmlns:xlink="http://www.w3.org/1999/xlink" width="48" height="48"><path d="M925.918257 211.615069c-0.818627 1.125612-2.762866 2.251224-3.786149 3.17218L674.906765 459.966024v402.662136c0 46.354752-35.507944 84.011592-81.965024 84.011592-21.488958 0-39.703408-8.18627-55.359648-22.921555-1.125612-0.716299-2.251224-1.637254-3.17218-2.558209L465.645248 853.21395c-8.493255-8.390926-8.595583-22.0006-0.204656-30.596182l29.265913-29.470571c8.288598-8.083941 21.591286-8.18627 29.982213-0.102328l62.829619 65.080843c0.920955 0.818627 1.330269 1.637254 2.455881 2.660538-0.61397-172.832617-0.818627-378.61497-0.818627-419.750975v-7.265314c0-5.730389 5.116419-11.563106 9.209553-15.553912l264.211852-261.960628c0.716299-0.920955 1.534926-3.479165 2.353553-3.479164h-705.042471c0.818627 0 0.716299 2.455881 1.330269 3.376836L421.644049 418.625362c4.093135 4.093135 4.502448 9.516538 4.502448 15.246927V606.090936c0 0.204657 0.61397 0.511642 0.613971 0.716299-0.511642 23.330868-18.726092 41.852303-41.647647 41.852303-23.330868 0-44.819826-19.033077-44.819826-42.363945v-146.329569l-242.415909-245.588089c-0.920955-0.920955 0.61397-2.455881-0.102328-3.479164-14.837614-15.860897-23.126212-36.735885-23.023884-58.429499 0-46.354752 37.65684-85.648846 83.909264-85.648846h707.600679c22.409913 0 43.489557 10.335165 59.350455 26.196062 15.860897 15.860897 24.047167 37.759169 24.047167 60.169082-0.204657 21.591286-8.902568 42.773259-23.740182 58.429499zM388.182672 665.850705c25.786749 0.920955 45.945438 22.512241 45.024483 48.29899-0.818627 24.558809-20.568002 44.205856-45.024483 45.024483-25.786749-0.920955-45.945438-22.512241-45.024483-48.298991 0.818627-24.45648 20.465674-44.205856 45.024483-45.024482z" p-id="3714"></path></svg>